PathFileType  4	(X/Y/Z) C:\Users\antoi\Documents\MyRepositories\mobilecap\ResultsAnalysis
DataRate	CameraRate	NumFrames	NumMarkers	Units	OrigDataRate	OrigDataStartFrame	OrigNumFrames
100.0	100.0	4	51	mm	100.0	100	132
Frame#	Time	r_knee			r_shank_antsup			r_ankle			r_calc			r_5meta			r_toe			L_knee			L_shank_antsup			L_ankle			L_calc			L_5meta			L_toe			r_sh2			r_sh3			r_sh4			L_sh2			L_sh3			r_thigh1			r_thigh2			r_thigh3			r_thigh4			r_thigh5			L_thigh1			L_thigh2			L_thigh3			L_thigh4			r.ASIS			r.PSIS			L.ASIS			L.PSIS			C7			R_Shoulder			L_Shoulder			R_Sternum			L_Sternum			R_humerus			R_elbow_med			R_elbow_lat			R_forearm			R_wrist_radius			R_wrist_ulna			L_humerus			L_elbow_med			L_elbow_lat			L_forearm			L_wrist_radius			L_wrist_ulna			R_HJC			L_HJC			R_HJC_reg			L_HJC_reg			
		X1	Y1	Z1	X2	Y2	Z2	X3	Y3	Z3	X4	Y4	Z4	X5	Y5	Z5	X6	Y6	Z6	X7	Y7	Z7	X8	Y8	Z8	X9	Y9	Z9	X10	Y10	Z10	X11	Y11	Z11	X12	Y12	Z12	X13	Y13	Z13	X14	Y14	Z14	X15	Y15	Z15	X16	Y16	Z16	X17	Y17	Z17	X18	Y18	Z18	X19	Y19	Z19	X20	Y20	Z20	X21	Y21	Z21	X22	Y22	Z22	X23	Y23	Z23	X24	Y24	Z24	X25	Y25	Z25	X26	Y26	Z26	X27	Y27	Z27	X28	Y28	Z28	X29	Y29	Z29	X30	Y30	Z30	X31	Y31	Z31	X32	Y32	Z32	X33	Y33	Z33	X34	Y34	Z34	X35	Y35	Z35	X36	Y36	Z36	X37	Y37	Z37	X38	Y38	Z38	X39	Y39	Z39	X40	Y40	Z40	X41	Y41	Z41	X42	Y42	Z42	X43	Y43	Z43	X44	Y44	Z44	X45	Y45	Z45	X46	Y46	Z46	X47	Y47	Z47	X48	Y48	Z48	X49	Y49	Z49	X50	Y50	Z50	X51	Y51	Z51	

100	0.99000000	1235.35983	490.92874	-75.05140	1284.92220	383.94031	-88.10776	1238.41590	108.04459	-102.11312	1197.82528	58.51525	-154.31540	1354.80323	76.23132	-67.63990	1389.17520	103.30812	-109.20280	996.70061	464.22494	-365.73144	1005.70930	360.43045	-303.51585	871.40789	91.48179	-322.04186	812.37714	56.37714	-278.04705	983.81488	37.73238	-329.19244	1018.95459	54.20754	-271.95040	1283.62340	272.74907	-100.56493	1227.65446	377.93656	-38.82291	1209.81369	268.05476	-59.51117	979.85831	378.46394	-385.46559	949.11882	261.88777	-386.60255	1164.92889	795.33978	-77.08364	1225.16038	703.34957	-78.24914	1199.13487	657.91461	-32.54691	1079.73218	739.75258	-28.40394	1143.26166	643.50112	-27.53739	1111.85118	745.36489	-381.89557	1098.30661	608.29982	-367.66839	1011.96875	755.81293	-431.15894	996.15324	615.42132	-408.88053	1136.63179	921.37024	-103.20472	955.87544	965.78664	-169.82795	1146.26461	923.36269	-343.94170	956.24652	975.56540	-286.93987	978.77326	1422.25821	-220.84628	1017.74034	1384.70199	-65.54287	1057.10001	1403.73326	-370.04110	1104.81860	1372.15281	-187.94042	1110.26953	1370.12117	-232.84907	1000.51583	1256.40279	-1.34941	902.13321	1082.76717	-83.40774	908.85733	1083.95584	-6.79532	914.12523	959.41211	18.06803	907.18172	854.83988	21.49740	870.99386	862.53026	30.53728	1104.86595	1268.57692	-442.15885	1086.85904	1061.74451	-411.33746	1098.31995	1080.72352	-480.59543	1187.33036	1032.27971	-501.85843	1287.88641	951.40050	-492.73389	1268.98503	929.65404	-509.44762	1045.94525	851.15476	-130.06530	1055.42240	852.13070	-319.20308	1069.11498	845.75519	-143.08699	1069.61870	858.98734	-301.55473	
101	1.00000000	1246.00021	488.45569	-72.53892	1302.01399	385.80959	-86.09430	1273.82255	106.34617	-100.57239	1235.30794	55.21503	-151.88551	1392.65149	81.83590	-68.05062	1424.65938	111.25889	-109.96803	1001.85625	463.83306	-365.57266	1010.04043	359.44946	-303.57143	872.07508	92.22083	-321.90239	812.69938	57.48541	-277.86957	983.82536	37.76477	-329.21464	1018.76175	53.71270	-272.08110	1307.26464	274.49411	-98.63497	1245.15989	376.10669	-36.48708	1233.95330	265.33214	-57.42401	983.70320	378.08504	-385.29325	951.30552	261.98215	-386.62483	1177.05616	792.90343	-76.47745	1236.42874	700.24062	-77.48650	1209.99372	655.57009	-31.16368	1091.57888	738.58613	-26.91348	1154.33942	641.51239	-25.84364	1120.94595	743.72319	-381.64387	1105.63901	606.74451	-367.58318	1020.83939	755.46450	-430.42406	1003.33381	615.25534	-408.32612	1149.27696	920.35845	-102.60000	967.91771	964.33728	-168.23973	1157.30830	921.69667	-343.38771	967.54732	974.06707	-285.32752	990.60051	1420.76992	-219.55448	1029.37505	1382.93143	-64.33930	1069.54673	1402.41885	-368.56215	1116.70928	1370.37238	-186.58328	1122.17889	1368.41859	-231.51024	1011.46435	1254.72855	-0.26699	913.59080	1081.14875	-83.13172	919.33027	1082.65132	-6.37409	922.83171	958.40463	19.15616	914.37802	853.96533	23.07930	878.22158	862.22662	31.70497	1118.12617	1267.76533	-440.71116	1101.71522	1060.75921	-410.50056	1113.24667	1079.97743	-479.76900	1203.31285	1033.17283	-500.29651	1305.39642	954.42188	-490.46652	1287.42524	932.07248	-507.28162	1058.39197	849.97334	-128.73576	1066.66484	850.50937	-317.93117	1081.61614	844.28292	-142.04098	1081.11659	857.45131	-300.50450	
102	1.01000000	1256.20352	485.59750	-69.88176	1318.30929	387.56341	-84.14116	1307.06877	105.86617	-99.22230	1270.67839	53.25970	-149.58537	1428.12516	88.07255	-68.75616	1457.72237	119.64333	-110.96544	1007.32833	463.41373	-365.38365	1014.59880	358.41068	-303.61606	872.78527	93.06770	-321.84964	813.04527	58.75043	-277.75520	983.87856	37.78309	-329.25696	1018.46890	53.11972	-272.20022	1329.55154	276.46511	-96.80420	1262.01974	374.35050	-34.16846	1256.99843	263.14275	-55.34187	987.83384	377.71816	-385.09657	953.70691	262.11514	-386.65769	1189.23821	789.97615	-75.50242	1247.56168	696.47723	-76.27790	1220.38544	652.63552	-29.41941	1103.17862	737.12672	-25.54980	1164.86813	639.09833	-23.99503	1130.15465	742.02198	-381.41426	1113.21582	605.17026	-367.51427	1029.76518	755.07837	-429.51906	1010.73755	615.02195	-407.75280	1162.07272	919.23572	-102.01074	980.12181	962.68354	-166.60031	1168.46743	919.97966	-342.85030	978.97192	972.35048	-283.65514	1002.44222	1419.13823	-218.14966	1041.18872	1381.02353	-63.06643	1081.93103	1400.94069	-367.05591	1128.61801	1368.42215	-185.24356	1134.08627	1366.55794	-230.18017	1022.69070	1252.87094	0.88379	925.30919	1079.33470	-82.73258	930.04015	1081.16888	-5.84398	931.93827	957.24205	20.33924	922.13389	852.93703	24.73447	885.98942	861.73525	32.89909	1131.38362	1266.77025	-439.15544	1116.31011	1059.61126	-409.60120	1127.96846	1079.04873	-478.87458	1218.99461	1033.80499	-498.63706	1322.42046	957.03210	-488.08263	1305.28835	934.16925	-504.99876	1071.06474	848.62759	-127.40957	1078.08686	848.76333	-316.65517	1094.31748	842.70357	-140.98293	1092.76231	855.79075	-299.44510	
103	1.02000000	1266.12085	482.53994	-67.12995	1333.70709	389.05974	-82.19670	1337.76012	106.28403	-98.14401	1303.59000	52.27925	-147.64361	1460.82500	94.48408	-69.63909	1488.08885	128.04760	-112.01495	1013.18939	462.94804	-365.10022	1019.41567	357.31273	-303.59474	873.54602	94.05882	-321.84769	813.42613	60.19420	-277.68154	983.97715	37.78536	-329.30781	1018.13816	52.47608	-272.26779	1350.35904	278.47836	-95.08628	1278.06572	372.59575	-31.91262	1278.69853	261.34075	-53.37310	992.31034	377.35838	-384.82139	956.37402	262.30071	-386.64519	1201.51021	786.78296	-74.19390	1258.66890	692.34761	-74.67408	1230.53192	649.33971	-27.37140	1114.66727	735.51292	-24.21720	1175.02062	636.48165	-21.95988	1139.51767	740.24761	-381.15870	1121.10401	603.56857	-367.41184	1038.77647	754.60287	-428.38089	1018.42621	614.68682	-407.12228	1175.00348	917.99850	-101.44089	992.47846	960.83029	-164.89787	1179.75633	918.22086	-342.34975	990.53532	970.41339	-281.90942	1014.31570	1417.37273	-216.64162	1053.18185	1378.98414	-61.71543	1094.21953	1399.31733	-365.53435	1140.54926	1366.33505	-183.91700	1145.99180	1364.56392	-228.85372	1034.20013	1250.83233	2.11194	937.26854	1077.34135	-82.19036	940.99482	1079.51474	-5.19339	941.46421	955.91615	21.61358	930.46293	851.73738	26.45345	894.31734	861.01387	34.12547	1144.60760	1265.59737	-437.50314	1130.62136	1058.30376	-408.65480	1142.47970	1077.94934	-477.90541	1234.36083	1034.17135	-496.89287	1338.96425	959.21728	-485.58453	1322.54980	935.94662	-502.60657	1083.96302	847.11392	-126.09370	1089.69142	846.90052	-315.38162	1107.19616	841.02515	-139.92962	1104.56529	854.00511	-298.40554	
